name C:\Users\u0101727\Documents\MyRepositories\upper-imu-dc\Results\main_tracking\Case_43\FLX01_angularVelocities_bodyFrame.mot
datacolumns 4
datarows 141
range 2.01000000 3.41000000
endheader 
time	radius_imu_x	radius_imu_y	radius_imu_z	
          2.01000000	         -1.31677722	          0.16060603	          0.15438050	
          2.02000000	         -1.30548653	          0.17130031	          0.11792829	
          2.03000000	         -1.29335679	          0.18201519	          0.08221053	
          2.04000000	         -1.28039029	          0.19255104	          0.04735905	
          2.05000000	         -1.26660377	          0.20274635	          0.01348308	
          2.06000000	         -1.25203012	          0.21248507	         -0.01933029	
          2.07000000	         -1.23671990	          0.22170427	         -0.05101637	
          2.08000000	         -1.22074166	          0.23040017	         -0.08153408	
          2.09000000	         -1.20418043	          0.23863028	         -0.11086728	
          2.10000000	         -1.18713400	          0.24650940	         -0.13902512	
          2.11000000	         -1.16970721	          0.25419841	         -0.16604024	
          2.12000000	         -1.15200472	          0.26188571	         -0.19196469	
          2.13000000	         -1.13412355	          0.26976324	         -0.21686388	
          2.14000000	         -1.11614708	          0.27800109	         -0.24081006	
          2.15000000	         -1.09814145	          0.28672618	         -0.26387673	
          2.16000000	         -1.08015503	          0.29601047	         -0.28613464	
          2.17000000	         -1.06222022	          0.30586958	         -0.30764890	
          2.18000000	         -1.04435640	          0.31626930	         -0.32847636	
          2.19000000	         -1.02657317	          0.32713545	         -0.34866284	
          2.20000000	         -1.00887305	          0.33836362	         -0.36824012	
          2.21000000	         -0.99125383	          0.34982784	         -0.38722378	
          2.22000000	         -0.97371067	          0.36138908	         -0.40561269	
          2.23000000	         -0.95623857	          0.37290555	         -0.42339130	
          2.24000000	         -0.93883455	          0.38424437	         -0.44053424	
          2.25000000	         -0.92149872	          0.39529226	         -0.45701230	
          2.26000000	         -0.90423368	          0.40596242	         -0.47279776	
          2.27000000	         -0.88704225	          0.41619633	         -0.48786799	
          2.28000000	         -0.86992455	          0.42595991	         -0.50220628	
          2.29000000	         -0.85287561	          0.43523514	         -0.51580057	
          2.30000000	         -0.83588444	          0.44400879	         -0.52864056	
          2.31000000	         -0.81893511	          0.45226048	         -0.54071442	
          2.32000000	         -0.80200958	          0.45995235	         -0.55200600	
          2.33000000	         -0.78509188	          0.46702300	         -0.56249328	
          2.34000000	         -0.76817286	          0.47338768	         -0.57214891	
          2.35000000	         -0.75125471	          0.47894561	         -0.58094298	
          2.36000000	         -0.73435380	          0.48359221	         -0.58884746	
          2.37000000	         -0.71750170	          0.48723292	         -0.59584107	
          2.38000000	         -0.70074439	          0.48979580	         -0.60191346	
          2.39000000	         -0.68414076	          0.49124088	         -0.60706751	
          2.40000000	         -0.66776066	          0.49156479	         -0.61131943	
          2.41000000	         -0.65168264	          0.49080008	         -0.61469702	
          2.42000000	         -0.63599121	          0.48901042	         -0.61723697	
          2.43000000	         -0.62077351	          0.48628301	         -0.61898228	
          2.44000000	         -0.60611550	          0.48271959	         -0.61998028	
          2.45000000	         -0.59209786	          0.47842687	         -0.62028144	
          2.46000000	         -0.57879202	          0.47350709	         -0.61993881	
          2.47000000	         -0.56625665	          0.46804963	         -0.61900777	
          2.48000000	         -0.55453464	          0.46212494	         -0.61754615	
          2.49000000	         -0.54365106	          0.45578232	         -0.61561443	
          2.50000000	         -0.53361207	          0.44905235	         -0.61327618	
          2.51000000	         -0.52440541	          0.44195339	         -0.61059845	
          2.52000000	         -0.51600210	          0.43449980	         -0.60765127	
          2.53000000	         -0.50835952	          0.42670998	         -0.60450612	
          2.54000000	         -0.50142519	          0.41861286	         -0.60123305	
          2.55000000	         -0.49514070	          0.41025166	         -0.59789735	
          2.56000000	         -0.48944524	          0.40168498	         -0.59455623	
          2.57000000	         -0.48427829	          0.39298502	         -0.59125643	
          2.58000000	         -0.47958152	          0.38423399	         -0.58803322	
          2.59000000	         -0.47529974	          0.37551909	         -0.58491100	
          2.60000000	         -0.47138151	          0.36692683	         -0.58190535	
          2.61000000	         -0.46777919	          0.35853690	         -0.57902570	
          2.62000000	         -0.46444886	          0.35041644	         -0.57627804	
          2.63000000	         -0.46134974	          0.34261524	         -0.57366681	
          2.64000000	         -0.45844312	          0.33516274	         -0.57119576	
          2.65000000	         -0.45569066	          0.32806735	         -0.56886800	
          2.66000000	         -0.45305253	          0.32131816	         -0.56668571	
          2.67000000	         -0.45048541	          0.31488866	         -0.56464985	
          2.68000000	         -0.44794138	          0.30874123	         -0.56276015	
          2.69000000	         -0.44536786	          0.30283156	         -0.56101501	
          2.70000000	         -0.44270881	          0.29711244	         -0.55941155	
          2.71000000	         -0.43990686	          0.29153721	         -0.55794534	
          2.72000000	         -0.43690570	          0.28606328	         -0.55661022	
          2.73000000	         -0.43365209	          0.28065545	         -0.55539765	
          2.74000000	         -0.43009750	          0.27528811	         -0.55429550	
          2.75000000	         -0.42619914	          0.26994554	         -0.55328612	
          2.76000000	         -0.42192079	          0.26462025	         -0.55234424	
          2.77000000	         -0.41723337	          0.25931044	         -0.55143528	
          2.78000000	         -0.41211512	          0.25401769	         -0.55051494	
          2.79000000	         -0.40655143	          0.24874575	         -0.54953009	
          2.80000000	         -0.40053421	          0.24350022	         -0.54842080	
          2.81000000	         -0.39406119	          0.23828858	         -0.54712314	
          2.82000000	         -0.38713514	          0.23312002	         -0.54557233	
          2.83000000	         -0.37976311	          0.22800479	         -0.54370595	
          2.84000000	         -0.37195548	          0.22295362	         -0.54146686	
          2.85000000	         -0.36372482	          0.21797754	         -0.53880533	
          2.86000000	         -0.35508451	          0.21308834	         -0.53568032	
          2.87000000	         -0.34604741	          0.20829894	         -0.53205959	
          2.88000000	         -0.33662518	          0.20362306	         -0.52791916	
          2.89000000	         -0.32682840	          0.19907379	         -0.52324232	
          2.90000000	         -0.31666765	          0.19466155	         -0.51801826	
          2.91000000	         -0.30615513	          0.19039244	         -0.51224052	
          2.92000000	         -0.29530647	          0.18626795	         -0.50590537	
          2.93000000	         -0.28414239	          0.18228635	         -0.49901037	
          2.94000000	         -0.27268988	          0.17844548	         -0.49155334	
          2.95000000	         -0.26098309	          0.17474577	         -0.48353204	
          2.96000000	         -0.24906380	          0.17119275	         -0.47494470	
          2.97000000	         -0.23698132	          0.16779862	         -0.46579135	
          2.98000000	         -0.22479170	          0.16458283	         -0.45607582	
          2.99000000	         -0.21255614	          0.16157166	         -0.44580794	
          3.00000000	         -0.20033892	          0.15879608	         -0.43500535	
          3.01000000	         -0.18820487	          0.15628770	         -0.42369398	
          3.02000000	         -0.17621700	          0.15407356	         -0.41190744	
          3.03000000	         -0.16443425	          0.15217178	         -0.39968528	
          3.04000000	         -0.15290979	          0.15058963	         -0.38707127	
          3.05000000	         -0.14168974	          0.14932429	         -0.37411197	
          3.06000000	         -0.13081251	          0.14836560	         -0.36085610	
          3.07000000	         -0.12030868	          0.14769962	         -0.34735411	
          3.08000000	         -0.11020122	          0.14731175	         -0.33365767	
          3.09000000	         -0.10050606	          0.14718873	         -0.31981848	
          3.10000000	         -0.09123269	          0.14731879	         -0.30588669	
          3.11000000	         -0.08238498	          0.14768949	         -0.29190928	
          3.12000000	         -0.07396236	          0.14828379	         -0.27792889	
          3.13000000	         -0.06596133	          0.14907528	         -0.26398337	
          3.14000000	         -0.05837724	          0.15002484	         -0.25010605	
          3.15000000	         -0.05120602	          0.15107974	         -0.23632657	
          3.16000000	         -0.04444554	          0.15217616	         -0.22267179	
          3.17000000	         -0.03809609	          0.15324411	         -0.20916694	
          3.18000000	         -0.03215994	          0.15421327	         -0.19583637	
          3.19000000	         -0.02664011	          0.15501774	         -0.18270393	
          3.20000000	         -0.02153884	          0.15559932	         -0.16979281	
          3.21000000	         -0.01685623	          0.15590973	         -0.15712499	
          3.22000000	         -0.01258930	          0.15591197	         -0.14472043	
          3.23000000	         -0.00873167	          0.15558083	         -0.13259642	
          3.24000000	         -0.00527386	          0.15490238	         -0.12076685	
          3.25000000	         -0.00220394	          0.15387286	         -0.10924185	
          3.26000000	          0.00049168	          0.15249752	         -0.09802789	
          3.27000000	          0.00282780	          0.15079004	         -0.08712838	
          3.28000000	          0.00482055	          0.14877257	         -0.07654481	
          3.29000000	          0.00648793	          0.14647585	         -0.06627814	
          3.30000000	          0.00785071	          0.14393903	         -0.05633030	
          3.31000000	          0.00893334	          0.14120865	         -0.04670564	
          3.32000000	          0.00976461	          0.13833675	         -0.03741179	
          3.33000000	          0.01037788	          0.13537786	         -0.02846004	
          3.34000000	          0.01081082	          0.13238529	         -0.01986506	
          3.35000000	          0.01110456	          0.12940777	         -0.01164453	
          3.36000000	          0.01130277	          0.12648708	         -0.00381875	
          3.37000000	          0.01145061	          0.12365679	          0.00358960	
          3.38000000	          0.01159370	          0.12094182	          0.01055575	
          3.39000000	          0.01177707	          0.11835825	          0.01705340	
          3.40000000	          0.01204397	          0.11591300	          0.02305560	
          3.41000000	          0.01243477	          0.11360381	          0.02853626	
